<?xml version="1.0" encoding="UTF-8" standalone="no"?>
<svg
   width="100px"
   height="100px"
   viewBox="-50 -50 100 100"
  version="1.1"
   xmlns:inkscape="http://www.inkscape.org/namespaces/inkscape"
   xmlns:sodipodi="http://sodipodi.sourceforge.net/DTD/sodipodi-0.dtd"
   xmlns="http://www.w3.org/2000/svg"
   xmlns:svg="http://www.w3.org/2000/svg">
     <path
     fill="#000000"
     d="m -23.8 35.4 c -0.9 -0.6 -1.9 -1.4 -2.1 -1.8 l -0.5 -0.7 v -25.9 c 0 -21.5 -0.1 -26.3 -0.4 -28.1 c -0.6 -3.5 0 -4.4 3.7 -4.5 c 1.8 0 2.8 -0.3 6.1 -1.4 c 2.2 -0.7 8.8 -3 14.8 -5 s 11.2 -3.8 11.6 -4 c 0.4 -0.2 1.2 -0.3 1.7 -0.3 h 0.9 v 1.1 c 0 1.4 0.1 1.5 1 1.2 c 0.5 -0.2 0.7 -0.2 0.9 0.1 c 0.1 0.2 0.5 0.4 0.8 0.4 s 0.9 0.3 1.2 0.7 c 0.3 0.4 0.8 0.7 1.1 0.7 s 0.6 0.2 0.7 0.4 c 0.1 0.2 0.6 0.6 1.1 0.9 c 0.6 0.3 0.9 0.7 0.8 0.9 c -0.1 0.2 0 0.4 0.3 0.4 c 0.2 0 0.5 0.2 0.7 0.5 s 0.6 0.5 1 0.5 h 0.7 v 2 c 0 1.1 -0.2 6.3 -0.3 11.5 c -0.2 5.2 -0.4 16.9 -0.4 25.9 c -0.1 18.3 0 16.9 -2 17.2 c -1 0.2 -3.6 0.7 -20.1 4.1 c -5.6 1.1 -12 2.3 -14.3 2.6 c -3 0.4 -4.2 0.7 -4.7 1.1 c -1 0.8 -2.2 0.7 -4 -0.6 z m 3.6 -27.6 l 0.1 -27.5 l -0.5 0.2 c -0.8 0.3 -2.5 -0.3 -4 -1.3 l -1.4 -0.9 l 0.2 26.7 c 0.1 16.7 0.3 27 0.5 27.5 c 0.5 1.6 3.3 3.4 4.6 3 l 0.5 -0.2 z m 2.7 26.6 c 9.5 -1.6 37.3 -7 37.9 -7.3 c 0.1 -0.1 0.2 -4.7 0.2 -10.3 c 0 -5.6 0.1 -10.3 0.1 -10.4 c 0.2 -0.3 0.7 -31.3 0.5 -32.7 l -0.2 -1.4 l -0.8 0.1 c -4 0.5 -7.7 1.2 -13.5 2.4 c -9 1.8 -14.7 2.8 -22.2 3.6 c -1.7 0.2 -3.2 0.4 -3.4 0.5 c -0.3 0.2 -0.7 55.8 -0.4 55.8 c 0.1 0 0.9 -0.1 1.7 -0.2 z m -2.9 -55.1 c 0 -0.1 -0.4 -0.3 -0.8 -0.3 c -1.7 0 -4.5 -1.9 -4.5 -3.1 c 0 -0.2 -0.1 -0.3 -0.3 -0.2 c -1.1 0.7 2.7 3.8 4.7 3.8 c 0.5 0 0.9 -0.1 0.9 -0.3 z m -2.1 -3 c 1 0.1 5.5 -1.3 14.4 -4.6 c 2.3 -0.9 7.5 -2.7 11.5 -4.1 s 7.4 -2.7 7.5 -2.8 c 0.4 -0.4 -0.3 -0.3 -1.2 0.2 c -0.4 0.2 -3.4 1.2 -6.7 2.1 c -3.2 0.9 -10.3 3.2 -15.7 5 c -7 2.4 -10.2 3.3 -11 3.3 c -1.3 0 -1.4 0 -0.9 0.8 c 0.2 0.4 0.4 0.5 0.7 0.3 c 0.2 -0.1 0.9 -0.2 1.4 -0.1 z m 16.4 -0.1 c 4.4 -0.6 7.5 -1.1 12.7 -2.2 c 2.5 -0.5 5.6 -1.2 6.9 -1.4 c 5 -1 -0.4 -0.3 -9.7 1.2 c -5 0.8 -14.2 2.7 -13.5 2.7 c 0.3 0 1.9 -0.2 3.6 -0.4 z m -7.8 -1.3 c 1.7 -0.6 4 -1.4 5.1 -1.7 c 8.3 -2.3 19.8 -6.5 19.8 -7.2 c 0 -0.6 -2.2 0.1 -9 2.8 c -2.1 0.8 -7.4 2.8 -11.8 4.3 c -4.4 1.5 -8 2.8 -8 2.9 c -0.4 0.4 1.1 0 3.9 -1 z m 8 -0.3 c 1.8 -0.4 4.2 -0.8 5.3 -1 s 4.6 -0.9 7.8 -1.6 c 10.5 -2.1 10.3 -2.1 9.7 -3 c -0.2 -0.4 -4.6 0.6 -14.3 3.1 c -2.1 0.6 -5.6 1.4 -7.8 2 c -2.2 0.5 -4 1 -4.1 1.1 c -0.2 0.2 -0.1 0.1 3.4 -0.6 z m 16.8 -5.3 c 3.5 -0.7 4.4 -1 4.4 -1.4 c 0 -0.5 -1.6 -0.2 -5 0.9 c -3.1 1.1 -4.9 1.8 -3.2 1.4 c 0.4 -0.1 2.1 -0.5 3.8 -0.8 z m -0.7 -1.2 c 2.6 -0.8 3.9 -1.5 2.2 -1.2 c -0.9 0.2 -4.8 1.6 -5 1.9 c -0.2 0.2 0.3 0.1 2.8 -0.7 z"
     id="path2" />
</svg>
